<svg width="20" height="20" viewBox="5 5 20 20" fill="none" xmlns="http://www.w3.org/2000/svg">
<path style="fill:#EBC416;" d="M22.436,16.352l-0.109-1.67c0,0,0,0,0-0.008c-0.008-0.037-0.016-0.08-0.022-0.117
	c-0.015-0.037-0.022-0.073-0.036-0.109c-0.045-0.096-0.11-0.184-0.191-0.25c-0.08-0.072-0.176-0.131-0.277-0.183
	c-0.11-0.036-0.221-0.073-0.345-0.088c-0.132-0.015-0.264-0.015-0.403,0c-0.109,0.007-0.219,0.029-0.329,0.059
	s-0.228,0.065-0.337,0.117c-0.389,0.169-0.762,0.286-1.128,0.366c-0.352,0.08-0.696,0.117-1.011,0.125
	c-0.308,0-0.586-0.037-0.842-0.096c-0.257-0.059-0.484-0.154-0.682-0.271c-0.037-0.029-0.08-0.051-0.117-0.08
	c-0.044-0.021-0.08-0.051-0.125-0.073c-0.176-0.11-0.322-0.22-0.44-0.315c-0.108-0.102-0.196-0.197-0.263-0.293
	c-0.059-0.088-0.102-0.176-0.131-0.264c-0.029-0.095-0.045-0.189-0.059-0.293h0.197h0.205c0.067,0,0.117-0.007,0.176-0.029
	c0.044-0.014,0.088-0.043,0.132-0.08c0.029-0.029,0.052-0.066,0.073-0.103s0.037-0.073,0.044-0.117
	c0.007-0.036,0.015-0.073,0.007-0.117c0-0.036,0-0.081-0.014-0.117c-0.016-0.059-0.037-0.117-0.074-0.169
	c-0.036-0.051-0.08-0.095-0.139-0.124c-0.029-0.015-0.059-0.022-0.103-0.036c-0.044-0.016-0.088-0.022-0.132-0.029
	c-0.029-0.008-0.059-0.016-0.079-0.022c-0.029-0.007-0.053-0.007-0.067-0.015c-0.096-0.029-0.184-0.066-0.264-0.096
	c-0.073-0.036-0.146-0.065-0.22-0.102h0.007h0.008c0.132,0,0.256-0.029,0.373-0.074c0.11-0.051,0.213-0.117,0.301-0.197
	c0.088-0.088,0.154-0.19,0.205-0.301c0.044-0.109,0.073-0.234,0.073-0.358c0-0.132-0.029-0.256-0.073-0.366
	c-0.051-0.11-0.117-0.212-0.205-0.293c-0.088-0.088-0.19-0.154-0.301-0.205c-0.117-0.044-0.241-0.073-0.373-0.073
	s-0.256,0.029-0.366,0.073c-0.117,0.051-0.22,0.117-0.308,0.205c-0.08,0.081-0.154,0.183-0.197,0.293
	c-0.052,0.11-0.081,0.234-0.081,0.366v0.007l-0.007-0.007l-0.008-0.015c-0.037-0.066-0.08-0.125-0.117-0.183
	s-0.08-0.117-0.125-0.176c0.037-0.125,0.096-0.242,0.176-0.344c0.074-0.103,0.169-0.198,0.271-0.278s0.22-0.139,0.352-0.183
	s0.264-0.066,0.41-0.066c0.176,0,0.344,0.037,0.489,0.095c0.155,0.066,0.294,0.154,0.404,0.271c0.117,0.11,0.205,0.242,0.271,0.381
	c0.066,0.146,0.104,0.308,0.104,0.476c-0.037,0.022-0.081,0.051-0.11,0.088c-0.036,0.037-0.065,0.073-0.095,0.117
	c-0.045,0.074-0.081,0.162-0.104,0.257c-0.029,0.095-0.036,0.205-0.036,0.308c0,0.109,0.007,0.22,0.036,0.314
	c0.022,0.096,0.059,0.176,0.104,0.25c0.036,0.059,0.072,0.102,0.109,0.139c0.044,0.044,0.088,0.073,0.139,0.096
	c0,0.036,0,0.088,0,0.139c0.008,0.051,0.008,0.109,0.016,0.161c0.007,0.103,0.014,0.212,0.029,0.3
	c0.007,0.096,0.014,0.169,0.029,0.205c0.007,0.081,0.036,0.146,0.065,0.213s0.065,0.125,0.11,0.176
	c0.036,0.029,0.065,0.059,0.102,0.088c0.037,0.021,0.081,0.044,0.125,0.059c0.037,0.015,0.08,0.021,0.132,0.029
	c0.044,0,0.095,0,0.14-0.008c0.065-0.014,0.131-0.036,0.197-0.065c0.066-0.036,0.132-0.081,0.205-0.146
	c0.021-0.022,0.037-0.044,0.044-0.059c0.015-0.022,0.022-0.044,0.029-0.065c0.007-0.022,0.015-0.045,0.015-0.066
	s-0.008-0.044-0.008-0.066c-0.007-0.021-0.014-0.036-0.029-0.059c-0.007-0.014-0.021-0.029-0.036-0.043
	c-0.015-0.016-0.029-0.029-0.044-0.037c-0.021-0.008-0.037-0.015-0.051-0.021c-0.081-0.022-0.184,0.029-0.293,0.109
	c-0.104,0.08-0.205,0.19-0.286,0.271c-0.015,0.007-0.022,0.021-0.029,0.029c-0.015,0.007-0.022,0.014-0.029,0.021
	c-0.015-0.008-0.029-0.015-0.036-0.029c-0.016-0.008-0.029-0.021-0.045-0.037c-0.036-0.036-0.065-0.088-0.088-0.139
	c-0.029-0.051-0.043-0.109-0.059-0.176c-0.007-0.037-0.014-0.109-0.021-0.197c-0.015-0.088-0.021-0.191-0.029-0.293
	c-0.008-0.052-0.008-0.096-0.015-0.14c0-0.044,0-0.088-0.007-0.124c0.007,0,0.007,0,0.014,0h0.008c0.059,0,0.109-0.008,0.161-0.029
	c0.052-0.022,0.095-0.059,0.14-0.096c0,0.059,0.007,0.117,0.021,0.176c0.008,0.051,0.029,0.109,0.051,0.154
	c0.022,0.059,0.052,0.109,0.088,0.16c0.037,0.045,0.081,0.088,0.125,0.117c0.051,0.037,0.103,0.059,0.154,0.081
	c0.059,0.015,0.117,0.022,0.183,0.022c0.073-0.008,0.146-0.022,0.228-0.059c0.08-0.037,0.16-0.088,0.241-0.162
	c0.022-0.021,0.036-0.043,0.052-0.065c0.014-0.022,0.021-0.036,0.029-0.059c0.007-0.022,0.007-0.052,0.007-0.073
	s0-0.044-0.007-0.059c-0.008-0.021-0.016-0.044-0.022-0.059c-0.015-0.021-0.029-0.037-0.044-0.051
	c-0.015-0.008-0.029-0.022-0.044-0.029c-0.015-0.016-0.036-0.022-0.052-0.022c-0.08-0.029-0.183,0.029-0.285,0.11
	c-0.109,0.08-0.213,0.183-0.293,0.264c-0.008,0.014-0.021,0.021-0.029,0.029c-0.008,0.014-0.015,0.021-0.029,0.029c0,0,0,0,0-0.008
	c-0.044-0.021-0.073-0.059-0.103-0.096c-0.029-0.036-0.052-0.08-0.073-0.124c-0.037-0.073-0.051-0.153-0.059-0.241
	c-0.008-0.096,0-0.191,0.021-0.286c0.029-0.065,0.052-0.132,0.066-0.212c0.015-0.074,0.021-0.154,0.021-0.242
	c0-0.021,0-0.044,0-0.066c-0.007-0.029-0.007-0.051-0.007-0.072c0.103-0.008,0.198-0.022,0.286-0.052
	c0.088-0.022,0.168-0.059,0.234-0.103c0.088-0.051,0.16-0.117,0.205-0.19c0.051-0.073,0.08-0.154,0.08-0.234
	c0-0.088-0.029-0.168-0.08-0.242c-0.045-0.073-0.117-0.132-0.205-0.19c-0.052-0.029-0.11-0.059-0.169-0.081
	c-0.065-0.022-0.132-0.037-0.205-0.051c0.059-0.044,0.11-0.095,0.153-0.154c0.045-0.051,0.088-0.103,0.117-0.161
	c0.045-0.081,0.074-0.168,0.081-0.256s-0.007-0.168-0.044-0.242c-0.008,0-0.008-0.007-0.008-0.007c0-0.007-0.007-0.007-0.007-0.007
	c-0.044-0.073-0.11-0.132-0.183-0.168c-0.081-0.037-0.176-0.051-0.279-0.059c-0.059,0-0.124,0.007-0.189,0.015
	c-0.066,0.015-0.133,0.029-0.205,0.059c0.029-0.073,0.051-0.146,0.065-0.212c0.007-0.066,0.015-0.132,0.015-0.198
	c-0.008-0.095-0.021-0.19-0.066-0.271c-0.036-0.073-0.095-0.139-0.168-0.183c-0.08-0.044-0.161-0.059-0.249-0.051
	S16.35,8.419,16.262,8.47c-0.059,0.029-0.11,0.066-0.163,0.11c-0.05,0.037-0.1,0.088-0.146,0.139
	c-0.012-0.073-0.029-0.139-0.059-0.205c-0.021-0.066-0.05-0.125-0.079-0.176c-0.059-0.088-0.125-0.161-0.197-0.205
	c-0.074-0.051-0.154-0.081-0.242-0.081s-0.168,0.029-0.242,0.081c-0.072,0.044-0.139,0.117-0.189,0.205
	c-0.037,0.051-0.059,0.11-0.088,0.168c-0.022,0.059-0.037,0.132-0.052,0.198c-0.052-0.059-0.103-0.11-0.153-0.154
	c-0.052-0.044-0.11-0.081-0.162-0.11C14.394,8.39,14.306,8.36,14.218,8.36c-0.088-0.007-0.176,0.007-0.249,0.051
	c-0.08,0.044-0.139,0.103-0.176,0.183s-0.059,0.168-0.066,0.271c0,0.081,0.016,0.168,0.037,0.264
	c0.021,0.088,0.051,0.183,0.103,0.271c-0.103,0.073-0.183,0.161-0.257,0.256c-0.072,0.095-0.131,0.198-0.189,0.308
	c-0.045-0.007-0.088-0.007-0.133-0.007c-0.036,0.007-0.08,0.007-0.117,0.015c-0.043,0.015-0.088,0.029-0.124,0.044
	c-0.044,0.022-0.081,0.044-0.117,0.066c-0.022,0.022-0.044,0.037-0.065,0.059c-0.016,0.022-0.037,0.044-0.052,0.066
	c-0.044-0.007-0.088-0.015-0.14-0.022c-0.043-0.007-0.095-0.015-0.146-0.022c-0.153-0.029-0.322-0.059-0.498-0.081
	c-0.168-0.015-0.344-0.022-0.505-0.015c-0.329,0.029-0.63,0.132-0.835,0.396s-0.315,0.688-0.264,1.362
	c0,0.029,0.015,0.052,0.037,0.074c0.022,0.014,0.051,0.029,0.081,0.021c0.021,0,0.037,0,0.051-0.015
	c0.016-0.007,0.029-0.022,0.037-0.036c0.109-0.176,0.227-0.315,0.352-0.418s0.249-0.168,0.373-0.205
	c0.07-0.023,0.146-0.021,0.216-0.027c-0.042,0.02-0.082,0.042-0.118,0.071c-0.037,0.044-0.074,0.088-0.096,0.14
	c-0.021,0.051-0.029,0.109-0.029,0.176c0,0.059,0.008,0.109,0.029,0.16c0.021,0.052,0.059,0.104,0.096,0.14
	c0.043,0.044,0.088,0.073,0.146,0.095c0.013,0.006,0.029,0.005,0.043,0.011c-0.113,0.015-0.207,0.05-0.279,0.093
	c-0.08,0.043-0.132,0.102-0.168,0.16c-0.016,0.029-0.029,0.066-0.037,0.104c-0.008,0.036-0.015,0.072-0.008,0.109
	c0,0.037,0.016,0.066,0.022,0.103c0.015,0.036,0.029,0.065,0.052,0.095c0.043,0.066,0.109,0.117,0.183,0.162
	c0.073,0.043,0.153,0.065,0.249,0.072h0.008h0.007h1.406h1.413c-0.014,0.104-0.029,0.198-0.059,0.286
	c-0.029,0.095-0.072,0.176-0.131,0.264c-0.066,0.095-0.154,0.198-0.271,0.3c-0.109,0.104-0.256,0.205-0.447,0.322
	c0,0-0.007,0.008-0.014,0.008c0,0.008-0.008,0.015-0.008,0.015c-0.037,0.022-0.073,0.044-0.109,0.073
	c-0.037,0.021-0.074,0.044-0.104,0.066c-0.197,0.117-0.417,0.205-0.666,0.264c-0.256,0.059-0.527,0.088-0.828,0.088
	c-0.314-0.008-0.658-0.045-1.018-0.125c-0.352-0.08-0.732-0.197-1.121-0.366c-0.117-0.052-0.227-0.088-0.337-0.117
	s-0.22-0.052-0.33-0.059c-0.139-0.015-0.271-0.015-0.396,0C8.52,13.941,8.41,13.971,8.3,14.015c-0.103,0.052-0.205,0.11-0.278,0.176
	c-0.081,0.073-0.146,0.161-0.19,0.257c-0.015,0.036-0.022,0.072-0.037,0.109c-0.007,0.037-0.015,0.08-0.022,0.117
	c0,0.008,0,0.008,0,0.008l-0.11,1.67l-0.11,1.67c0,0.007,0,0.007,0,0.007c0,0.007,0,0.007,0,0.007c0,0.096,0.015,0.184,0.037,0.25
	c0.029,0.065,0.066,0.117,0.11,0.153c0.022,0.022,0.051,0.036,0.081,0.052c0.022,0.014,0.051,0.021,0.088,0.021
	c0.029,0.008,0.059,0,0.088,0c0.029-0.008,0.059-0.015,0.088-0.029c0.051-0.029,0.103-0.066,0.146-0.125
	c0.037-0.051,0.073-0.124,0.095-0.205v-0.007v-0.007l0.249-1.553l0.249-1.553c0.015-0.059,0.029-0.104,0.051-0.14
	s0.044-0.059,0.073-0.065c0.015-0.008,0.029-0.008,0.037-0.016c0.015,0,0.029,0,0.044,0.008c0.015,0,0.029,0,0.037,0.008
	c0.015,0.007,0.029,0.014,0.044,0.029c0.044,0.021,0.073,0.065,0.095,0.117c0.022,0.051,0.037,0.117,0.029,0.189l-0.103,1.59
	l-0.11,1.59c0,0.007,0,0.007,0,0.007c0,0.095,0.015,0.183,0.044,0.249c0.022,0.066,0.059,0.117,0.103,0.154
	c0.029,0.021,0.051,0.036,0.081,0.051s0.059,0.021,0.088,0.021c0.029,0.008,0.059,0.008,0.088,0
	c0.029-0.007,0.059-0.014,0.088-0.029c0.059-0.021,0.11-0.065,0.146-0.124c0.044-0.052,0.081-0.124,0.103-0.205c0,0,0,0,0-0.007
	l0.234-1.473l0.242-1.473c0.015-0.102,0.044-0.183,0.081-0.248c0.037-0.059,0.081-0.104,0.125-0.125
	c0.015-0.015,0.037-0.015,0.051-0.021c0.015,0,0.022,0,0.037,0c0.014,0,0.03,0.007,0.043,0.014c0.016,0.008,0.029,0.016,0.037,0.022
	c0.044,0.036,0.073,0.088,0.096,0.161c0.021,0.073,0.029,0.168,0.021,0.278l-0.103,1.479l-0.103,1.473c0,0.007,0,0.007,0,0.007
	v0.007c0,0.096,0.021,0.184,0.044,0.25c0.029,0.065,0.065,0.117,0.11,0.153c0.021,0.022,0.051,0.036,0.08,0.052
	c0.021,0.014,0.051,0.021,0.088,0.021c0.029,0,0.059,0,0.088,0c0.029-0.008,0.059-0.015,0.088-0.029
	c0.051-0.029,0.103-0.073,0.146-0.125c0.037-0.051,0.073-0.124,0.096-0.205c0-0.007,0-0.007,0-0.007v-0.007l0.205-1.253l0.197-1.253
	c0.021-0.124,0.059-0.227,0.103-0.3c0.052-0.073,0.103-0.117,0.169-0.146c0.014-0.007,0.036-0.015,0.051-0.015
	c0.021,0,0.044-0.008,0.059,0c0.015,0,0.037,0.008,0.051,0.015c0.016,0,0.029,0.015,0.045,0.022
	c0.036,0.029,0.065,0.072,0.088,0.124c0.021,0.059,0.029,0.124,0.029,0.205c-0.016,0.073-0.022,0.146-0.029,0.22
	c-0.008,0.073-0.008,0.146-0.008,0.22c0,0.264,0.037,0.513,0.103,0.747c0.065,0.242,0.161,0.469,0.286,0.674l-0.213,1.398
	l-0.213,1.399c0,0,0,0,0,0.015c-0.007,0.088,0,0.176,0.022,0.249c0.022,0.059,0.052,0.117,0.095,0.161
	c0.022,0.015,0.045,0.044,0.074,0.059s0.059,0.015,0.088,0.029c0.029,0,0.059,0,0.088,0s0.059-0.015,0.088-0.029
	c0.059-0.015,0.109-0.059,0.153-0.103c0.052-0.059,0.088-0.117,0.117-0.205l0.264-1.048l0.257-1.055
	c0.014,0.008,0.021,0.016,0.029,0.022c0.014,0.007,0.021,0.015,0.036,0.022c0,0.007,0,0.007,0,0.007l-0.117,1.67l-0.11,1.685
	c0,0,0,0,0,0.015c0,0.088,0.016,0.176,0.045,0.234c0.021,0.073,0.059,0.117,0.102,0.161c0.029,0.015,0.052,0.044,0.081,0.044
	c0.029,0.015,0.059,0.029,0.088,0.029s0.059,0,0.088,0c0.029-0.015,0.059-0.015,0.088-0.029c0.052-0.029,0.103-0.073,0.146-0.132
	c0.044-0.044,0.081-0.117,0.095-0.205c0,0,0,0,0.008,0c0,0,0,0,0-0.015l0.242-1.523l0.248-1.523c0,0,0.008,0,0.016,0
	c0.007,0.007,0.007,0.007,0.014,0.007l0.104,1.692l0.102,1.685c0,0,0,0,0,0.015c0.016,0.088,0.037,0.161,0.081,0.22
	c0.036,0.059,0.081,0.103,0.132,0.132c0.029,0.015,0.051,0.029,0.08,0.029c0.029,0.015,0.059,0.015,0.088,0.015
	c0.037,0,0.066,0,0.096-0.015c0.029,0,0.059-0.015,0.08-0.044c0.052-0.029,0.088-0.073,0.125-0.146
	c0.029-0.059,0.051-0.146,0.066-0.249l0.043-1.655l0.045-1.662c0.014-0.008,0.029-0.008,0.043-0.008
	c0.008,0,0.022-0.008,0.037-0.008l0.243,1.517l0.246,1.523c0,0.015,0,0.015,0,0.015c0.023,0.088,0.053,0.161,0.097,0.205
	c0.044,0.059,0.096,0.103,0.146,0.132c0.029,0.015,0.059,0.015,0.088,0.029c0.029,0,0.059,0,0.088,0s0.059-0.015,0.088-0.029
	c0.029,0,0.059-0.029,0.08-0.044c0.045-0.044,0.081-0.088,0.11-0.161c0.022-0.059,0.036-0.146,0.044-0.234c0-0.015,0-0.015,0-0.015
	l-0.117-1.67l-0.109-1.67c0.007-0.008,0.021-0.015,0.029-0.021c0.014-0.008,0.021-0.016,0.036-0.022l0.257,1.04l0.256,1.04
	c0.029,0.088,0.066,0.146,0.117,0.205c0.044,0.059,0.103,0.088,0.154,0.103c0.029,0.015,0.059,0.029,0.088,0.029s0.059,0,0.088,0
	c0.036-0.015,0.059-0.015,0.088-0.029s0.051-0.044,0.08-0.059c0.037-0.044,0.066-0.103,0.088-0.161
	c0.021-0.073,0.029-0.161,0.021-0.249c0-0.015,0-0.015,0-0.015l-0.212-1.384l-0.205-1.377c0.132-0.213,0.234-0.439,0.3-0.689
	c0.074-0.241,0.11-0.498,0.11-0.769c0-0.059,0-0.124-0.007-0.183c0-0.066-0.008-0.125-0.016-0.191
	c-0.014-0.095-0.007-0.183,0.016-0.248c0.021-0.066,0.051-0.11,0.095-0.146c0.015-0.008,0.029-0.016,0.044-0.022
	s0.037-0.015,0.051-0.015c0.016,0,0.037,0,0.052,0c0.022,0,0.044,0.008,0.059,0.015c0.059,0.029,0.117,0.081,0.169,0.153
	c0.043,0.074,0.08,0.169,0.102,0.293l0.198,1.253l0.205,1.253v0.007c0,0,0,0,0,0.007c0.022,0.081,0.059,0.154,0.095,0.205
	c0.045,0.052,0.096,0.096,0.154,0.125c0.021,0.015,0.051,0.021,0.08,0.029c0.029,0,0.066,0.008,0.096,0
	c0.029,0,0.059-0.008,0.088-0.021c0.021-0.016,0.051-0.029,0.073-0.052c0.044-0.036,0.081-0.088,0.11-0.153
	c0.021-0.066,0.036-0.154,0.036-0.25v-0.007c0,0,0,0,0-0.007l-0.095-1.473l-0.104-1.479c-0.007-0.11,0-0.205,0.022-0.278
	s0.052-0.125,0.088-0.161c0.015-0.007,0.029-0.015,0.044-0.022c0.015-0.007,0.029-0.014,0.037-0.014c0.014,0,0.029,0,0.043,0
	c0.016,0.007,0.029,0.014,0.045,0.021c0.051,0.021,0.095,0.066,0.131,0.125c0.037,0.065,0.066,0.146,0.081,0.248l0.234,1.473
	l0.241,1.473c0,0.007,0,0.007,0.008,0.007c0.015,0.081,0.051,0.153,0.096,0.205c0.036,0.059,0.088,0.103,0.146,0.124
	c0.029,0.016,0.059,0.022,0.088,0.029c0.029,0.008,0.059,0.008,0.088,0c0.029,0,0.059-0.007,0.088-0.021s0.051-0.029,0.08-0.051
	c0.044-0.037,0.08-0.088,0.103-0.154c0.029-0.066,0.044-0.146,0.044-0.249c0,0,0,0,0-0.007l-0.109-1.59l-0.104-1.59
	c-0.007-0.072,0.008-0.139,0.029-0.189c0.022-0.052,0.052-0.096,0.096-0.117c0.015-0.016,0.029-0.022,0.044-0.029
	c0.015,0,0.022-0.008,0.036-0.008c0.016-0.008,0.029-0.008,0.045,0c0.007,0,0.021,0,0.036,0.008
	c0.029,0.007,0.052,0.029,0.073,0.065s0.044,0.081,0.051,0.14l0.25,1.553l0.248,1.553v0.007v0.007
	c0.022,0.081,0.052,0.154,0.096,0.205c0.044,0.059,0.096,0.096,0.146,0.125c0.029,0.015,0.059,0.021,0.088,0.029
	s0.059,0.008,0.088,0c0.029,0,0.066-0.008,0.088-0.021c0.029-0.016,0.059-0.029,0.08-0.052c0.045-0.036,0.081-0.088,0.11-0.153
	c0.022-0.066,0.044-0.146,0.044-0.25c0,0,0,0,0-0.007c0,0,0,0,0-0.007L22.436,16.352z M17.235,13.582l0.015-0.014
	c0.066-0.066,0.154-0.154,0.234-0.228c0.088-0.073,0.161-0.124,0.197-0.11c0.008,0,0.016,0.008,0.022,0.008
	c0.007,0.008,0.015,0.008,0.022,0.015c0,0.007,0.007,0.015,0.014,0.022c0.008,0.007,0.008,0.014,0.008,0.021
	c0.008,0.008,0.008,0.021,0.008,0.029s0,0.021-0.008,0.029c0,0.008-0.008,0.021-0.015,0.029c-0.007,0.015-0.015,0.021-0.022,0.037
	c-0.059,0.051-0.117,0.088-0.168,0.117c-0.059,0.029-0.109,0.051-0.161,0.059c-0.029,0-0.059,0.007-0.081,0.007
	c-0.029,0-0.051-0.007-0.072-0.007L17.235,13.582z M17.639,12.828l0.007-0.015c0.065-0.065,0.161-0.161,0.241-0.228
	c0.081-0.072,0.154-0.124,0.198-0.117c0.007,0.008,0.015,0.008,0.022,0.016c0.007,0,0.014,0.007,0.021,0.014
	c0,0,0.008,0.008,0.015,0.016c0,0.007,0.007,0.021,0.007,0.029c0,0.007,0.008,0.014,0.008,0.021c0,0.015-0.008,0.021-0.008,0.029
	c0,0.015-0.007,0.021-0.014,0.037c-0.008,0.007-0.016,0.021-0.029,0.036c-0.066,0.059-0.133,0.103-0.198,0.132
	s-0.124,0.044-0.183,0.044c-0.016,0-0.037,0-0.052,0s-0.036,0-0.052-0.007L17.639,12.828z M14.672,10.543
	c0.037-0.088,0.096-0.168,0.161-0.227c0.065-0.066,0.14-0.117,0.228-0.154s0.183-0.059,0.285-0.059s0.197,0.022,0.285,0.059
	s0.169,0.088,0.233,0.154c0.067,0.059,0.117,0.139,0.155,0.227c0.038,0.081,0.059,0.176,0.059,0.278c0,0.095-0.021,0.19-0.059,0.278
	c-0.038,0.08-0.088,0.161-0.155,0.227c-0.064,0.066-0.146,0.117-0.233,0.154s-0.183,0.051-0.285,0.051s-0.197-0.014-0.285-0.051
	c-0.081-0.037-0.162-0.088-0.228-0.154c-0.065-0.065-0.117-0.146-0.161-0.227c-0.037-0.088-0.051-0.183-0.051-0.278
	C14.621,10.719,14.635,10.624,14.672,10.543z M17.111,11.824c-0.022,0.074-0.052,0.14-0.088,0.198
	c-0.029,0.052-0.059,0.088-0.096,0.117s-0.073,0.044-0.117,0.044c-0.037,0-0.073-0.015-0.109-0.044
	c-0.037-0.029-0.074-0.065-0.104-0.117c-0.036-0.059-0.065-0.124-0.08-0.198c-0.021-0.08-0.029-0.16-0.029-0.256
	c0-0.088,0.008-0.168,0.029-0.249c0.015-0.073,0.044-0.146,0.08-0.198c0.029-0.051,0.066-0.088,0.104-0.117
	c0.036-0.029,0.072-0.043,0.109-0.043c0.044,0,0.08,0.015,0.117,0.043c0.037,0.029,0.066,0.066,0.096,0.117
	c0.036,0.052,0.065,0.125,0.088,0.198c0.014,0.081,0.029,0.161,0.029,0.249C17.141,11.664,17.125,11.744,17.111,11.824z
	 M13.822,9.745c0.066-0.081,0.146-0.154,0.249-0.212c0.022-0.015,0.044-0.044,0.052-0.066c0-0.029,0-0.059-0.016-0.088
	c-0.007,0-0.007-0.007-0.007-0.007c0-0.007,0-0.007-0.007-0.007c-0.045-0.088-0.081-0.176-0.11-0.256
	c-0.022-0.081-0.029-0.161-0.029-0.234c0-0.066,0.015-0.117,0.036-0.168c0.016-0.044,0.052-0.081,0.088-0.103
	c0.037-0.022,0.088-0.037,0.14-0.029s0.11,0.029,0.161,0.059c0.066,0.037,0.132,0.081,0.197,0.146
	c0.059,0.059,0.117,0.132,0.169,0.22c0.022,0.037,0.088,0.059,0.146,0.051s0.117-0.037,0.117-0.11c0-0.095,0.007-0.183,0.029-0.271
	c0.022-0.081,0.052-0.154,0.095-0.22c0.029-0.051,0.074-0.095,0.11-0.125c0.044-0.029,0.088-0.051,0.14-0.051
	c0.043,0,0.088,0.022,0.131,0.051c0.037,0.029,0.081,0.073,0.11,0.125c0.044,0.066,0.073,0.139,0.095,0.22
	c0.022,0.088,0.029,0.176,0.029,0.271c0,0.051,0.052,0.103,0.104,0.125c0.059,0.022,0.123,0.022,0.152-0.037
	c0.053-0.088,0.111-0.161,0.169-0.22c0.065-0.066,0.124-0.11,0.197-0.146c0.051-0.029,0.109-0.051,0.161-0.059
	c0.052,0,0.095,0.007,0.14,0.029c0.036,0.022,0.065,0.059,0.088,0.103c0.021,0.051,0.036,0.103,0.036,0.168
	c0,0.073-0.007,0.154-0.029,0.234c-0.029,0.081-0.059,0.161-0.11,0.249c-0.029,0.037-0.014,0.103,0.016,0.146
	c0.029,0.051,0.088,0.088,0.139,0.066c0.008,0,0.008,0,0.015,0c0-0.007,0.007-0.007,0.007-0.007c0.088-0.051,0.169-0.088,0.257-0.11
	s0.169-0.029,0.241-0.029c0.066,0,0.117,0.007,0.169,0.029c0.044,0.022,0.081,0.051,0.11,0.088c0,0,0,0,0,0.007
	c0.021,0.044,0.029,0.088,0.021,0.139s-0.021,0.103-0.051,0.154c-0.037,0.066-0.088,0.132-0.154,0.19
	c-0.059,0.059-0.132,0.117-0.22,0.161c-0.044,0.029-0.065,0.095-0.059,0.154s0.044,0.11,0.11,0.11c0.102,0,0.197,0.015,0.277,0.029
	c0.088,0.022,0.162,0.051,0.228,0.095c0.052,0.029,0.095,0.066,0.132,0.11c0.029,0.044,0.044,0.088,0.044,0.132
	s-0.015,0.088-0.044,0.132c-0.037,0.037-0.08,0.073-0.132,0.109c-0.059,0.037-0.132,0.066-0.205,0.081
	c-0.073,0.022-0.161,0.036-0.249,0.044c-0.015-0.044-0.029-0.08-0.044-0.109c-0.015-0.037-0.029-0.074-0.044-0.104
	c-0.051-0.073-0.109-0.139-0.176-0.183s-0.132-0.073-0.213-0.081c-0.007-0.183-0.051-0.359-0.131-0.52
	c-0.074-0.168-0.176-0.315-0.301-0.432c-0.139-0.132-0.293-0.242-0.478-0.315c-0.175-0.073-0.372-0.117-0.577-0.117
	c-0.168,0-0.33,0.029-0.477,0.081c-0.153,0.051-0.293,0.125-0.417,0.22C14.35,9.73,14.254,9.825,14.174,9.92
	c-0.08,0.103-0.146,0.212-0.197,0.337c-0.052-0.059-0.11-0.103-0.162-0.139c-0.059-0.044-0.117-0.073-0.176-0.095
	C13.697,9.92,13.756,9.825,13.822,9.745z M12.176,11.43c-0.021-0.052-0.059-0.096-0.096-0.14c-0.023-0.021-0.051-0.032-0.076-0.048
	c0.059,0.013,0.116,0.016,0.178,0.033c0.154,0.051,0.301,0.117,0.439,0.19s0.271,0.161,0.41,0.249
	c0.08,0.044,0.161,0.096,0.242,0.146c0.08,0.051,0.168,0.096,0.248,0.139H12.6h-0.658c0.051-0.021,0.096-0.051,0.139-0.095
	c0.037-0.036,0.074-0.088,0.096-0.14c0.021-0.051,0.037-0.102,0.037-0.16C12.213,11.539,12.197,11.48,12.176,11.43z M11.561,11.686
	c-0.008-0.029-0.015-0.059-0.015-0.08c0-0.029,0.007-0.059,0.015-0.088c0.015-0.029,0.029-0.052,0.051-0.074
	c0.022-0.014,0.045-0.029,0.066-0.043c0.029-0.008,0.059-0.016,0.088-0.016s0.059,0.008,0.088,0.016
	c0.029,0.014,0.051,0.029,0.073,0.043c0.015,0.022,0.036,0.045,0.044,0.074c0.015,0.021,0.015,0.051,0.015,0.088
	c0,0.021,0,0.051-0.015,0.08c-0.008,0.021-0.029,0.044-0.044,0.066c-0.022,0.021-0.044,0.036-0.073,0.051
	c-0.029,0.008-0.059,0.015-0.088,0.015s-0.059-0.007-0.088-0.015c-0.021-0.015-0.044-0.029-0.066-0.051
	C11.59,11.729,11.575,11.707,11.561,11.686z M13.83,12.696h-2.161c-0.059-0.007-0.11-0.022-0.153-0.052
	c-0.045-0.021-0.081-0.051-0.11-0.095c-0.007-0.015-0.015-0.029-0.022-0.044c-0.007-0.015-0.014-0.037-0.014-0.051
	c0-0.016,0-0.029,0-0.045c0.007-0.014,0.014-0.029,0.021-0.043c0.015-0.029,0.051-0.059,0.096-0.081
	c0.051-0.029,0.109-0.052,0.189-0.065h1.194h1.194c0.007,0,0.007,0,0.007,0c0.007,0,0.007,0,0.007,0
	c0.096,0.029,0.198,0.043,0.309,0.059c0.109,0.014,0.227,0.021,0.344,0.021c0.029,0,0.059-0.015,0.08-0.037
	c0.022-0.014,0.029-0.043,0.029-0.072s-0.014-0.059-0.029-0.081c-0.021-0.015-0.051-0.029-0.08-0.029
	c-0.344,0-0.63-0.065-0.887-0.169c-0.256-0.102-0.476-0.241-0.695-0.381c-0.139-0.088-0.278-0.176-0.432-0.256
	c-0.146-0.08-0.301-0.154-0.469-0.205c-0.169-0.051-0.33-0.081-0.491-0.088c-0.153-0.007-0.315,0.007-0.469,0.051
	c-0.117,0.037-0.228,0.096-0.337,0.169s-0.213,0.176-0.314,0.293c0-0.454,0.102-0.747,0.271-0.93
	c0.161-0.183,0.388-0.264,0.63-0.278c0.154-0.015,0.314,0,0.477,0.015c0.16,0.022,0.329,0.051,0.476,0.073
	c0.044,0.007,0.088,0.015,0.132,0.022c0.037,0.007,0.08,0.015,0.117,0.022c-0.008,0.066,0,0.139,0.029,0.212s0.073,0.146,0.139,0.22
	c0.016,0.022,0.045,0.037,0.074,0.037s0.059-0.007,0.08-0.022c0.021-0.022,0.037-0.051,0.037-0.073c0-0.029-0.008-0.059-0.022-0.081
	c-0.059-0.066-0.088-0.125-0.11-0.183c-0.014-0.059-0.007-0.11,0.008-0.154c0,0,0-0.007,0.008-0.007V10.36
	c0.007-0.022,0.021-0.037,0.036-0.059c0.015-0.015,0.029-0.029,0.052-0.044c0.021-0.015,0.043-0.029,0.072-0.044
	c0.022-0.007,0.052-0.022,0.081-0.022c0.088-0.022,0.19-0.022,0.3,0.015c0.104,0.037,0.213,0.11,0.309,0.22
	c0.072,0.073,0.131,0.161,0.189,0.242s0.117,0.168,0.169,0.249c0.153,0.234,0.3,0.468,0.534,0.681
	c0.228,0.213,0.543,0.402,1.019,0.557c0.022,0.008,0.044,0.015,0.073,0.021c0.029,0.008,0.059,0.016,0.097,0.022
	c0.035,0.007,0.07,0.015,0.108,0.022c0.029,0.007,0.05,0.014,0.067,0.021c0.029,0.015,0.05,0.037,0.064,0.066
	c0.022,0.021,0.036,0.051,0.044,0.088c0.008,0.021,0.008,0.043,0.008,0.072c0,0.022,0,0.045-0.008,0.066
	c0,0.021-0.008,0.044-0.021,0.059c-0.008,0.021-0.022,0.037-0.037,0.051c-0.015,0.016-0.038,0.029-0.059,0.037
	c-0.029,0.008-0.059,0.015-0.088,0.015H13.83z M14.408,13.686c0.029-0.037,0.059-0.074,0.08-0.11
	c0.066-0.103,0.117-0.205,0.154-0.315c0.037-0.109,0.059-0.227,0.066-0.352h0.329h0.329c0.016,0.125,0.037,0.242,0.066,0.352
	c0.037,0.11,0.088,0.221,0.161,0.322c0.022,0.037,0.044,0.066,0.073,0.104c0.029,0.029,0.059,0.065,0.088,0.095
	c-0.117-0.029-0.227-0.044-0.352-0.065c-0.117-0.008-0.234-0.022-0.359-0.022c-0.124,0-0.248,0.015-0.373,0.029
	c-0.117,0.015-0.242,0.036-0.352,0.065C14.35,13.751,14.379,13.715,14.408,13.686z M12.284,15.604
	c-0.015-0.007-0.029-0.021-0.036-0.029c-0.037-0.029-0.066-0.051-0.104-0.065c-0.036-0.015-0.072-0.022-0.109-0.029
	c-0.037,0-0.08,0-0.117,0.007c-0.037,0.008-0.073,0.016-0.109,0.029c-0.096,0.045-0.176,0.11-0.25,0.213
	c-0.065,0.103-0.124,0.234-0.146,0.396l-0.205,1.253l-0.197,1.252c-0.015,0.051-0.029,0.088-0.051,0.117
	c-0.022,0.029-0.052,0.059-0.074,0.066c-0.014,0.007-0.021,0.007-0.029,0.014c-0.007,0-0.021,0-0.029,0
	c-0.007,0-0.014-0.007-0.021-0.007c-0.008-0.007-0.015-0.007-0.021-0.015c-0.022-0.021-0.045-0.051-0.052-0.088
	c-0.015-0.037-0.022-0.088-0.022-0.154l0.104-1.472l0.102-1.479c0.008-0.146-0.007-0.278-0.043-0.381
	c-0.037-0.103-0.088-0.184-0.146-0.234c-0.037-0.029-0.066-0.044-0.104-0.059c-0.029-0.015-0.065-0.029-0.102-0.029
	c-0.037-0.008-0.074-0.008-0.11,0s-0.073,0.021-0.11,0.037c-0.066,0.043-0.139,0.102-0.198,0.197
	c-0.051,0.088-0.095,0.205-0.117,0.344l-0.242,1.465l-0.242,1.473c-0.007,0.044-0.029,0.08-0.051,0.117
	C9.428,18.57,9.406,18.592,9.376,18.6c-0.007,0.008-0.015,0.008-0.029,0.015c-0.007,0-0.015,0-0.022,0s-0.015-0.007-0.029-0.007
	C9.289,18.6,9.281,18.6,9.274,18.592c-0.015-0.014-0.037-0.043-0.051-0.088c-0.007-0.036-0.022-0.088-0.022-0.153l0.11-1.589
	l0.11-1.59c0.007-0.109-0.015-0.213-0.059-0.301c-0.037-0.08-0.095-0.146-0.161-0.197c-0.029-0.015-0.059-0.029-0.088-0.044
	s-0.059-0.022-0.095-0.029c-0.029,0-0.059,0-0.095,0c-0.029,0-0.066,0.015-0.095,0.022c-0.059,0.029-0.117,0.065-0.161,0.131
	c-0.044,0.059-0.081,0.146-0.095,0.25l-0.249,1.545l-0.249,1.553c-0.015,0.051-0.037,0.088-0.051,0.125
	C8,18.256,7.97,18.277,7.948,18.285c-0.015,0.007-0.022,0.007-0.029,0.014c-0.007,0-0.022,0-0.029,0s-0.015-0.007-0.022-0.007
	c-0.007-0.007-0.015-0.007-0.022-0.015c-0.022-0.021-0.044-0.044-0.051-0.088c-0.015-0.037-0.022-0.088-0.022-0.154l0.11-1.67
	l0.11-1.67C8,14.666,8.007,14.637,8.014,14.607c0.007-0.021,0.015-0.051,0.022-0.072c0.037-0.066,0.081-0.133,0.139-0.184
	c0.059-0.059,0.132-0.103,0.212-0.132c0.088-0.036,0.19-0.065,0.293-0.081c0.11-0.007,0.227-0.014,0.344,0
	c0.095,0.008,0.198,0.029,0.293,0.052c0.103,0.029,0.205,0.065,0.308,0.11c0.403,0.176,0.791,0.3,1.165,0.381
	c0.374,0.088,0.732,0.124,1.062,0.124c0.191,0,0.367-0.007,0.535-0.029c0.176-0.022,0.337-0.059,0.483-0.103
	c-0.117,0.139-0.228,0.293-0.322,0.461c-0.095,0.162-0.169,0.33-0.228,0.514C12.307,15.633,12.299,15.619,12.284,15.604z
	 M12.929,19.75l-0.271,1.091c-0.016,0.044-0.037,0.088-0.059,0.117c-0.022,0.029-0.052,0.044-0.081,0.059c-0.007,0-0.015,0-0.029,0
	c-0.007,0-0.015,0-0.022,0c-0.007,0-0.014,0-0.021,0c-0.008-0.015-0.015-0.015-0.021-0.015c-0.022-0.029-0.037-0.059-0.052-0.103
	c-0.007-0.029-0.007-0.088-0.007-0.146l0.197-1.282l0.19-1.273c0.044,0.051,0.088,0.102,0.132,0.153s0.088,0.095,0.139,0.146
	c0.029,0.029,0.059,0.052,0.088,0.081s0.059,0.051,0.088,0.08L12.929,19.75z M13.998,20.738l-0.249,1.538
	c-0.015,0.044-0.029,0.088-0.052,0.117c-0.021,0.029-0.051,0.059-0.072,0.059c-0.008,0.015-0.022,0.015-0.029,0.015
	c-0.008,0-0.016,0-0.029,0c-0.008,0-0.016,0-0.022,0s-0.015-0.015-0.022-0.015c-0.021-0.015-0.036-0.044-0.051-0.088
	s-0.021-0.088-0.021-0.146l0.109-1.626l0.109-1.619c0.088,0.045,0.184,0.096,0.279,0.133c0.095,0.036,0.197,0.072,0.293,0.102
	L13.998,20.738z M15.266,20.943l-0.045,1.641c-0.007,0.059-0.021,0.117-0.036,0.161c-0.015,0.029-0.036,0.059-0.059,0.073
	c-0.007,0.015-0.022,0.015-0.029,0.015s-0.015,0-0.022,0c-0.007,0-0.014,0-0.029,0c-0.007,0-0.014,0-0.021-0.015
	c-0.029-0.015-0.051-0.029-0.066-0.059c-0.021-0.044-0.036-0.073-0.043-0.132l-0.104-1.655l-0.095-1.67
	c0.052,0,0.11,0.008,0.161,0.015c0.059,0,0.109,0,0.168,0c0.045,0,0.088,0,0.133,0c0.043,0,0.088-0.007,0.131-0.015L15.266,20.943z
	 M16.598,22.364c-0.014,0.044-0.036,0.073-0.051,0.088c-0.015,0-0.021,0.015-0.029,0.015s-0.015,0-0.021,0c-0.008,0-0.016,0-0.029,0
	c-0.008,0-0.016,0-0.029,0c-0.022-0.015-0.045-0.044-0.066-0.073s-0.044-0.073-0.059-0.117l-0.243-1.523l-0.246-1.538
	c0.1-0.029,0.205-0.059,0.299-0.103c0.095-0.036,0.19-0.081,0.278-0.124l0.109,1.618l0.104,1.611
	C16.613,22.276,16.605,22.32,16.598,22.364z M17.506,19.486l0.191,1.267c0.007,0.059,0,0.117-0.008,0.146
	c-0.008,0.044-0.021,0.073-0.044,0.103c-0.007,0-0.015,0-0.022,0.015c-0.007,0-0.014,0-0.021,0s-0.021,0-0.029,0s-0.015,0-0.029,0
	c-0.021-0.015-0.051-0.029-0.073-0.059c-0.029-0.029-0.044-0.073-0.065-0.117l-0.264-1.084l-0.271-1.077
	c0.037-0.029,0.073-0.059,0.103-0.095c0.036-0.029,0.065-0.059,0.103-0.088c0.044-0.044,0.08-0.088,0.125-0.132
	c0.036-0.044,0.08-0.096,0.117-0.139L17.506,19.486z M17.587,17.23c-0.065,0.227-0.169,0.446-0.293,0.645l-0.007,0.007v0.007
	c-0.052,0.081-0.11,0.162-0.176,0.234c-0.059,0.081-0.125,0.146-0.198,0.221c-0.234,0.234-0.521,0.424-0.835,0.557
	c-0.314,0.131-0.666,0.197-1.033,0.197c-0.365,0-0.71-0.066-1.025-0.197c-0.314-0.133-0.6-0.322-0.842-0.557
	s-0.432-0.514-0.564-0.828c-0.139-0.308-0.212-0.652-0.212-1.011c0-0.044,0.007-0.095,0.007-0.14c0-0.051,0.008-0.102,0.016-0.146
	c0-0.007,0-0.007,0-0.014c0.007-0.008,0.007-0.008,0.007-0.016c0-0.014,0-0.036,0.007-0.051c0-0.015,0-0.029,0-0.044
	c0.045-0.278,0.133-0.534,0.257-0.776c0.132-0.242,0.293-0.454,0.483-0.645c0.044-0.044,0.096-0.088,0.146-0.132
	c0.044-0.044,0.096-0.081,0.146-0.117c0.037-0.022,0.066-0.036,0.096-0.059s0.059-0.036,0.08-0.059c0.008,0,0.008,0,0.008-0.007
	c0.007,0,0.007,0,0.007,0c0.205-0.125,0.425-0.221,0.651-0.286c0.234-0.065,0.484-0.103,0.732-0.103
	c0.264,0,0.514,0.037,0.749,0.103c0.24,0.073,0.46,0.169,0.665,0.3c0.021,0.016,0.044,0.029,0.066,0.045
	c0.021,0.014,0.043,0.029,0.065,0.043c0.059,0.045,0.117,0.081,0.169,0.133c0.051,0.043,0.102,0.088,0.153,0.139
	c0.241,0.234,0.439,0.513,0.571,0.82c0.132,0.314,0.205,0.652,0.205,1.011C17.689,16.762,17.652,17.003,17.587,17.23z
	 M22.311,18.189c-0.014,0.044-0.036,0.066-0.051,0.088c-0.015,0.008-0.021,0.008-0.029,0.015c0,0-0.015,0.007-0.021,0.007
	c-0.008,0-0.016,0-0.022,0c-0.015-0.007-0.022-0.007-0.029-0.014c-0.029-0.008-0.052-0.029-0.073-0.066
	c-0.021-0.029-0.044-0.066-0.051-0.117l-0.25-1.553l-0.248-1.545c-0.022-0.104-0.052-0.191-0.096-0.25
	c-0.051-0.065-0.103-0.102-0.168-0.131c-0.029-0.008-0.059-0.022-0.096-0.022c-0.029,0-0.066,0-0.096,0
	c-0.029,0.007-0.065,0.015-0.095,0.029s-0.059,0.029-0.088,0.044c-0.065,0.051-0.124,0.117-0.161,0.197
	c-0.037,0.088-0.059,0.191-0.051,0.301l0.102,1.59l0.11,1.589c0,0.065-0.007,0.117-0.022,0.153
	c-0.014,0.045-0.029,0.066-0.051,0.088c-0.008,0.008-0.015,0.008-0.021,0.016c-0.008,0-0.016,0.007-0.029,0.007
	c-0.008,0-0.016,0-0.022,0c-0.007-0.007-0.022-0.007-0.029-0.015c-0.022-0.008-0.052-0.029-0.073-0.059
	c-0.021-0.037-0.037-0.073-0.051-0.117l-0.242-1.473l-0.234-1.465c-0.021-0.139-0.066-0.256-0.125-0.344
	c-0.059-0.096-0.124-0.154-0.197-0.197c-0.037-0.016-0.073-0.029-0.109-0.037c-0.037-0.008-0.074-0.008-0.11,0
	c-0.036,0-0.073,0.008-0.103,0.029c-0.037,0.015-0.066,0.029-0.096,0.059c-0.065,0.051-0.117,0.132-0.153,0.234
	s-0.052,0.234-0.036,0.381l0.102,1.479l0.104,1.472c0,0.066-0.008,0.117-0.022,0.154s-0.036,0.066-0.059,0.088
	c0,0.008-0.015,0.008-0.022,0.015c-0.007,0-0.014,0.007-0.021,0.007s-0.015,0-0.021,0c-0.016-0.007-0.022-0.007-0.029-0.014
	c-0.029-0.008-0.052-0.037-0.074-0.066c-0.021-0.029-0.043-0.066-0.051-0.117l-0.205-1.252l-0.197-1.253
	c-0.029-0.161-0.081-0.293-0.154-0.396s-0.154-0.168-0.242-0.213c-0.036-0.014-0.08-0.021-0.117-0.029
	c-0.036-0.007-0.072-0.007-0.109-0.007c-0.044,0.007-0.08,0.015-0.117,0.029c-0.029,0.015-0.066,0.036-0.096,0.065
	c-0.014,0.008-0.029,0.022-0.043,0.037c-0.016,0.015-0.029,0.029-0.037,0.044c-0.059-0.183-0.139-0.358-0.234-0.521
	c-0.088-0.168-0.197-0.322-0.322-0.461c0.154,0.044,0.314,0.08,0.483,0.103c0.176,0.022,0.352,0.029,0.542,0.029
	c0.33,0,0.688-0.036,1.063-0.124c0.373-0.081,0.762-0.205,1.164-0.381c0.103-0.045,0.205-0.081,0.308-0.11
	c0.103-0.022,0.198-0.044,0.293-0.052c0.124-0.014,0.234-0.007,0.345,0c0.109,0.016,0.205,0.045,0.293,0.081
	c0.08,0.029,0.153,0.073,0.212,0.132c0.059,0.051,0.11,0.117,0.14,0.184c0.007,0.021,0.021,0.051,0.029,0.072
	c0.007,0.029,0.007,0.059,0.014,0.088l0.11,1.67l0.11,1.67C22.326,18.102,22.318,18.152,22.311,18.189z"/>
<path style="opacity:0.2;fill:#505050;enable-background:new    ;" d="M25,15.553c0,5.494-4.453,9.947-9.947,9.947
	c-5.493,0-9.947-4.453-9.947-9.947c0-5.494,4.454-9.947,9.947-9.947C20.547,5.605,25,10.059,25,15.553"/>
</svg>
